<?xml version="1.0" standalone="no"?>
<!DOCTYPE svg PUBLIC "-//W3C//DTD SVG 20010904//EN"
 "http://www.w3.org/TR/2001/REC-SVG-20010904/DTD/svg10.dtd">
<svg version="1.0" xmlns="http://www.w3.org/2000/svg"
 width="1936.000000pt" height="906.000000pt" viewBox="0 0 1936.000000 906.000000"
 preserveAspectRatio="xMidYMid meet">

<g transform="translate(0.000000,906.000000) scale(0.100000,-0.100000)"
fill="#000000" stroke="none">
<path d="M10630 8213 c-47 -6 -96 -42 -207 -150 -53 -52 -62 -67 -68 -107 -15
-96 8 -148 74 -166 54 -15 104 -12 193 10 71 19 93 20 198 12 126 -10 145 -18
200 -77 23 -24 25 -34 23 -104 -2 -66 -18 -181 -37 -273 -3 -13 -8 -57 -11
-98 -11 -123 -38 -381 -49 -470 -5 -32 -33 -97 -46 -105 -20 -13 -59 -103 -84
-196 -52 -197 -94 -259 -249 -372 l-38 -28 -32 23 c-17 13 -41 28 -52 33 -20
11 -54 64 -125 203 -53 101 -88 132 -153 132 -61 0 -77 -22 -77 -108 0 -68 29
-165 83 -282 40 -85 128 -172 227 -225 68 -35 83 -39 165 -43 51 -2 109 1 133
7 41 12 122 73 122 93 0 5 11 24 25 42 28 37 165 319 165 340 0 7 8 20 17 27
44 37 143 339 143 438 0 20 5 42 12 49 6 6 14 31 17 54 l6 43 50 -3 c44 -3 54
-8 87 -45 41 -46 118 -215 118 -259 0 -15 5 -30 11 -33 11 -8 6 -79 -16 -230
-32 -210 -25 -452 16 -544 24 -56 50 -85 108 -122 38 -25 55 -29 112 -29 49 0
73 5 90 18 13 10 44 30 69 44 97 57 247 203 285 279 26 51 61 140 72 186 3 15
-1 25 -16 33 -32 17 -80 -1 -176 -65 -85 -56 -146 -87 -264 -131 -60 -23 -66
-23 -89 -8 -24 16 -25 19 -19 103 6 84 13 119 64 331 29 120 28 163 -11 311
-26 103 -35 201 -22 265 5 31 22 58 62 100 60 66 147 191 190 274 16 30 48 83
71 116 24 34 43 65 43 69 0 9 87 106 105 117 5 3 26 -2 47 -12 20 -9 47 -20
61 -24 23 -5 75 -54 169 -159 50 -56 102 -72 132 -41 29 28 17 107 -25 178
-19 31 -49 83 -67 114 -85 145 -133 177 -254 170 -66 -4 -90 -11 -155 -44 -84
-42 -181 -128 -226 -201 -14 -23 -43 -54 -64 -70 -46 -34 -140 -111 -169 -138
-12 -11 -39 -31 -59 -45 -20 -14 -77 -58 -125 -98 -128 -105 -179 -107 -145
-6 8 25 15 61 15 82 1 45 28 178 70 337 19 74 34 156 37 215 5 86 3 97 -16
122 -25 31 -71 49 -206 78 -55 12 -135 30 -177 41 -43 11 -92 20 -110 20 -18
0 -73 1 -123 3 -49 2 -106 2 -125 -1z"/>
<path d="M13077 7650 c-38 -16 -84 -41 -103 -55 -54 -41 -116 -129 -117 -167
l-2 -33 59 -3 c54 -3 118 10 200 41 25 9 31 7 46 -13 24 -32 30 -76 13 -93 -7
-7 -23 -46 -34 -87 -20 -70 -120 -258 -198 -373 -18 -26 -51 -91 -72 -143 -49
-120 -53 -128 -95 -172 -100 -105 -187 -234 -269 -397 -33 -66 -35 -79 -45
-215 -10 -146 -2 -296 19 -370 17 -58 69 -106 136 -125 84 -25 144 -15 278 46
119 53 155 77 226 147 25 24 62 52 83 63 92 47 135 114 89 139 -28 15 -65 12
-156 -10 -44 -10 -132 -31 -195 -45 -63 -15 -136 -38 -162 -51 l-48 -24 6 42
c3 24 9 54 14 68 5 14 17 63 26 110 10 47 26 99 35 117 10 18 34 70 53 116 19
46 66 133 103 193 38 60 82 134 99 164 16 30 46 79 67 109 20 30 37 59 37 65
0 6 13 27 28 46 59 74 60 76 174 415 31 94 33 109 33 235 0 121 -2 140 -23
182 -13 26 -39 61 -58 78 -32 28 -41 30 -107 30 -57 0 -86 -7 -140 -30z"/>
<path d="M7904 7436 c-80 -23 -198 -83 -246 -126 -50 -44 -94 -121 -131 -230
-68 -199 -36 -338 99 -438 92 -68 188 -111 279 -123 44 -6 107 -17 141 -24 85
-20 263 -107 290 -142 34 -47 66 -118 74 -169 8 -50 7 -59 -13 -85 -12 -17
-45 -46 -74 -65 -50 -33 -59 -35 -158 -41 -103 -6 -106 -5 -133 19 -64 61
-186 92 -227 58 -26 -22 -15 -106 24 -173 38 -67 127 -152 186 -178 147 -65
421 -29 579 76 47 31 61 48 93 113 l38 76 0 135 c0 121 -3 145 -27 219 -38
112 -60 154 -102 186 -19 14 -113 64 -208 110 -140 68 -192 88 -273 105 -117
25 -187 58 -248 116 -32 30 -46 52 -50 81 -17 103 0 151 65 182 63 30 115 38
136 19 9 -8 31 -18 49 -22 20 -4 59 -33 108 -80 102 -98 195 -147 267 -143 52
3 53 4 56 35 5 51 -89 232 -158 302 -85 87 -190 180 -222 197 -42 22 -153 27
-214 10z"/>
<path d="M9712 7253 c-42 -20 -54 -43 -50 -96 2 -34 9 -45 37 -64 19 -13 49
-23 66 -23 21 0 35 -6 39 -16 7 -19 -28 -80 -54 -94 -30 -16 -137 -12 -248 10
-223 43 -470 11 -560 -73 -43 -39 -73 -114 -79 -191 -4 -64 -2 -77 24 -126 49
-95 166 -159 272 -147 52 6 77 30 87 83 12 66 -60 123 -158 124 -53 0 -57 7
-31 51 16 27 22 29 75 29 31 0 126 -14 210 -31 199 -40 284 -46 370 -25 144
34 288 131 309 209 17 61 5 172 -25 247 -30 72 -66 116 -113 136 -43 19 -130
17 -171 -3z"/>
<path d="M14325 7188 c-22 -19 -27 -34 -32 -93 -5 -60 -2 -77 16 -112 11 -23
30 -44 41 -48 11 -3 20 -11 20 -17 0 -14 127 0 162 18 38 20 48 43 48 114 0
85 -18 123 -69 143 -62 25 -154 23 -186 -5z"/>
<path d="M4550 7118 c-69 -70 -91 -186 -51 -274 29 -63 62 -84 136 -84 53 0
68 4 103 30 57 41 65 61 60 146 -9 134 -72 214 -168 214 -40 0 -53 -5 -80 -32z"/>
<path d="M7089 7130 c-10 -6 -34 -35 -54 -66 -20 -30 -44 -58 -53 -62 -10 -3
-41 -26 -71 -50 -29 -23 -71 -54 -92 -68 -21 -13 -39 -31 -39 -39 0 -10 -10
-15 -29 -15 -21 0 -44 15 -87 56 -114 110 -222 158 -354 158 -136 1 -214 -56
-349 -254 -75 -110 -98 -170 -113 -289 -14 -114 -6 -194 35 -353 19 -73 42
-167 51 -209 19 -86 66 -173 133 -246 24 -26 52 -63 60 -81 42 -89 146 -159
338 -228 72 -25 93 -28 205 -29 113 0 130 2 175 25 28 13 73 47 100 75 44 43
53 61 73 130 54 194 57 219 57 460 0 209 -2 238 -23 313 -13 46 -28 92 -35
102 -15 25 15 113 53 155 154 169 216 403 130 495 -29 31 -77 40 -111 20z
m-729 -451 c97 -32 295 -134 333 -173 26 -25 36 -46 41 -82 4 -27 16 -74 27
-104 27 -75 28 -84 29 -256 1 -107 -3 -162 -13 -190 -32 -88 -79 -210 -89
-231 -18 -37 -44 -37 -111 -2 -88 46 -153 102 -227 196 -68 85 -210 341 -210
377 0 12 -9 53 -20 91 -24 84 -27 213 -5 254 14 29 117 123 145 134 25 9 34 8
100 -14z"/>
<path d="M14001 6830 c-66 -10 -179 -66 -243 -121 -37 -31 -48 -47 -48 -70 0
-22 6 -32 26 -39 30 -12 222 -12 281 -1 67 13 68 5 32 -164 -11 -51 -22 -71
-76 -133 -35 -40 -75 -92 -90 -115 -14 -23 -32 -46 -38 -52 -7 -5 -27 -30 -45
-55 -17 -25 -65 -75 -105 -111 -100 -89 -149 -150 -190 -234 -31 -65 -45 -111
-82 -260 -23 -93 -14 -225 20 -297 64 -132 192 -184 352 -143 87 23 144 58
252 157 103 93 120 119 104 155 -15 33 -48 37 -163 19 -101 -16 -349 -37 -357
-30 -2 2 6 47 19 101 21 93 76 224 104 247 7 6 50 60 96 120 46 60 136 161
200 225 64 64 128 132 140 151 13 19 39 51 57 70 33 33 89 138 112 209 32 98
-10 321 -60 321 -5 0 -31 14 -57 30 -43 26 -58 30 -118 29 -38 -1 -93 -5 -123
-9z"/>
<path d="M4863 6620 c-17 -4 -46 -18 -63 -31 -45 -34 -120 -112 -120 -125 0
-6 -9 -19 -19 -28 -30 -28 -89 -155 -111 -241 -25 -99 -27 -197 -3 -220 30
-30 103 -15 181 37 88 59 154 95 222 119 63 22 62 23 110 -66 18 -33 45 -82
60 -110 21 -38 29 -69 34 -130 3 -44 11 -141 16 -215 6 -74 18 -157 27 -185
22 -67 108 -152 248 -245 193 -127 264 -152 370 -130 48 10 66 20 110 63 50
49 53 56 65 127 15 89 7 253 -16 322 -19 60 -45 78 -107 78 -40 0 -54 -5 -76
-28 -31 -31 -60 -101 -86 -210 -21 -84 -41 -104 -80 -78 -64 42 -154 226 -240
488 -68 208 -200 491 -287 613 -59 83 -143 171 -178 189 -15 8 -37 10 -57 6z"/>
<path d="M3589 6512 c-102 -53 -144 -166 -121 -324 17 -120 60 -188 118 -188
37 0 45 9 69 75 10 28 27 59 37 71 10 11 18 26 18 32 0 24 36 11 53 -18 10
-16 21 -30 25 -30 12 0 228 -215 242 -240 8 -14 53 -140 101 -280 217 -634
280 -789 352 -867 82 -89 222 -146 357 -147 168 -1 208 54 246 328 18 129 13
209 -13 238 -11 12 -31 18 -58 18 -46 0 -65 -17 -160 -140 -22 -29 -60 -72
-84 -96 l-44 -45 -24 22 c-12 13 -23 29 -23 37 0 8 -20 47 -45 86 -75 121
-155 336 -170 461 -12 98 -38 200 -69 275 -46 108 -145 256 -220 328 -35 34
-76 81 -90 106 -102 174 -289 326 -402 326 -26 0 -62 -10 -95 -28z"/>
<path d="M14954 6185 c-23 -8 -82 -27 -130 -41 -112 -32 -201 -79 -220 -115
-8 -16 -14 -46 -14 -69 0 -55 24 -64 149 -55 72 5 98 11 110 25 9 10 30 22 48
28 41 14 47 -1 27 -70 -36 -122 -46 -135 -299 -392 -189 -191 -242 -261 -339
-448 -63 -122 -66 -131 -66 -198 0 -87 9 -106 55 -114 66 -13 110 8 171 82 31
37 68 90 82 118 42 79 84 142 128 194 23 27 56 68 72 92 71 99 283 288 379
336 71 36 186 75 208 70 9 -2 28 -30 43 -64 15 -33 35 -72 45 -87 22 -34 22
-53 -3 -70 -11 -8 -28 -37 -38 -64 -12 -34 -49 -87 -112 -163 -132 -155 -168
-210 -267 -407 -78 -153 -87 -178 -91 -237 -5 -80 5 -96 61 -96 34 0 46 6 78
40 21 22 56 70 79 107 56 94 143 217 204 288 29 33 63 75 76 94 46 66 244 231
327 272 35 18 68 37 74 45 23 28 67 27 133 -5 108 -51 134 -107 96 -208 -38
-103 -130 -242 -241 -365 -59 -65 -123 -143 -144 -174 -50 -75 -128 -242 -155
-332 -43 -142 -13 -288 69 -336 48 -28 152 -28 206 0 56 29 105 103 105 160 0
39 -4 47 -32 64 -24 15 -43 19 -66 15 -27 -5 -38 -1 -62 23 l-29 30 19 40 c11
23 20 48 20 57 0 41 36 93 156 226 40 44 89 106 110 140 22 33 58 88 81 122
23 34 72 106 108 160 105 154 120 194 120 307 0 85 -3 100 -27 140 -35 59 -82
103 -143 133 -55 27 -183 66 -230 69 -30 2 -95 43 -95 59 0 33 -50 130 -88
171 -37 40 -57 52 -111 67 -36 11 -102 22 -146 25 -126 10 -170 50 -194 179
-11 61 -35 100 -79 129 -34 22 -158 24 -218 3z"/>
<path d="M2966 5384 c-74 -18 -110 -40 -170 -104 -77 -83 -136 -243 -136 -372
0 -70 6 -100 46 -217 25 -75 60 -163 78 -196 59 -109 178 -309 220 -368 23
-33 51 -75 63 -95 38 -64 114 -143 172 -180 31 -20 61 -41 66 -48 22 -27 133
-93 174 -104 62 -16 170 -15 233 4 115 34 202 110 309 274 96 147 113 248 85
512 -18 167 -36 246 -68 299 -37 60 -146 91 -196 55 -12 -8 -34 -39 -49 -67
-26 -50 -27 -62 -34 -257 -4 -113 -10 -212 -14 -220 -6 -14 -66 -65 -137 -117
-17 -13 -47 -27 -66 -33 -43 -11 -72 3 -103 53 -17 28 -19 43 -13 112 3 44 16
134 29 200 44 226 49 270 49 435 0 149 -2 171 -22 222 -68 169 -299 265 -516
212z m141 -354 c14 -11 47 -22 74 -26 l48 -6 25 -109 26 -109 -42 -127 c-23
-71 -42 -135 -43 -143 -7 -66 -37 -85 -101 -63 -88 30 -165 131 -184 241 -11
66 -10 78 11 149 13 43 38 100 56 127 18 26 33 52 33 57 0 10 36 27 58 28 8 1
25 -8 39 -19z"/>
<path d="M1704 5111 c-47 -12 -93 -43 -151 -103 -102 -105 -123 -185 -84 -318
58 -199 125 -344 212 -459 43 -57 81 -126 86 -156 8 -54 28 -112 46 -132 17
-19 18 -26 8 -54 -6 -18 -11 -43 -11 -55 0 -16 -6 -24 -17 -24 -10 -1 -43 -9
-73 -20 -30 -11 -72 -19 -93 -20 -21 0 -52 -7 -69 -16 -31 -16 -33 -16 -53 7
-12 13 -37 33 -56 43 -18 11 -59 42 -90 70 -212 195 -213 195 -373 256 -127
48 -191 56 -331 41 -173 -18 -242 -71 -308 -239 -16 -42 -32 -98 -34 -123 -5
-47 -2 -53 40 -82 13 -9 23 -38 32 -92 17 -98 66 -197 118 -238 30 -25 49 -32
97 -35 80 -6 147 5 171 29 35 35 22 128 -26 179 -12 14 -37 52 -54 85 -18 32
-39 67 -47 76 -17 19 -28 16 122 35 25 3 62 11 82 18 44 16 78 4 86 -28 3 -12
63 -78 133 -146 l127 -125 -36 -3 c-31 -3 -43 -11 -74 -55 -61 -84 -76 -135
-76 -263 0 -132 19 -212 58 -243 44 -34 120 -54 189 -49 72 6 111 23 137 58
25 35 41 133 33 207 l-7 63 33 0 c18 0 58 5 88 11 53 11 59 10 104 -16 27 -15
102 -84 175 -161 l127 -135 23 -92 c22 -91 23 -115 6 -249 -7 -54 -27 -65 -82
-43 -33 14 -54 13 -119 -6 -40 -13 -63 -67 -63 -147 1 -77 25 -126 96 -192 99
-91 138 -113 205 -118 66 -5 107 12 234 98 113 77 145 121 145 198 0 35 -48
230 -112 452 -63 221 -83 263 -166 345 -49 49 -101 143 -117 210 -10 42 -9 55
3 82 17 35 42 43 102 31 19 -4 76 -12 125 -18 128 -16 209 -65 381 -229 111
-107 149 -137 257 -200 173 -100 233 -123 332 -129 88 -5 225 23 297 59 57 29
76 80 99 264 22 180 -3 218 -149 223 -81 4 -89 2 -109 -20 -16 -16 -30 -56
-45 -124 -15 -70 -27 -104 -42 -116 -25 -21 -84 -24 -92 -4 -3 8 -24 19 -48
25 -23 5 -56 21 -74 33 -255 183 -376 269 -401 284 -16 9 -35 28 -42 41 -7 13
-67 74 -132 136 -175 163 -271 285 -381 481 -16 28 -54 89 -85 136 -31 47 -63
99 -72 116 -9 16 -29 47 -43 68 -16 24 -26 52 -26 75 0 21 -4 41 -9 47 -5 5
-13 31 -16 58 l-8 48 31 -6 c25 -6 36 -2 67 26 l37 32 -4 97 c-6 117 -31 177
-89 216 -42 27 -104 37 -155 24z"/>
<path d="M16794 4550 c-87 -23 -352 -139 -400 -175 -19 -15 -47 -45 -62 -68
-15 -23 -29 -44 -33 -47 -3 -3 -48 -61 -99 -130 -136 -183 -160 -246 -160
-425 1 -122 8 -164 48 -267 38 -100 94 -159 201 -212 47 -23 102 -49 121 -56
43 -16 90 -58 90 -79 0 -34 44 -161 62 -181 25 -26 93 -28 107 -2 12 23 16
110 7 145 -6 20 -4 33 7 45 8 9 20 34 26 54 19 59 64 112 138 161 37 25 86 62
108 81 45 39 199 165 260 212 22 18 81 53 130 79 50 26 97 53 105 60 8 8 53
26 99 40 111 35 141 64 141 134 0 61 -19 82 -100 112 -88 32 -89 34 -156 192
-44 105 -98 192 -143 230 -44 37 -164 93 -229 106 -77 16 -187 13 -268 -9z
m279 -166 c34 -6 41 -12 68 -65 16 -33 36 -92 44 -132 l15 -72 -33 -100 c-41
-127 -63 -162 -140 -224 -34 -27 -80 -68 -102 -91 -22 -23 -91 -80 -153 -127
l-112 -85 -94 -5 c-83 -5 -100 -3 -140 16 -25 11 -49 21 -54 21 -11 0 -45 46
-71 98 -42 82 -22 219 55 372 32 63 161 176 303 265 122 76 175 101 266 126
59 16 71 16 148 3z"/>
<path d="M18050 3299 c-123 -25 -188 -43 -246 -70 l-64 -28 0 -46 c0 -43 2
-47 35 -61 46 -19 242 -19 315 0 73 19 95 8 86 -42 -3 -21 -6 -57 -6 -82 0
-43 -4 -50 -71 -118 -44 -44 -85 -76 -107 -83 -21 -6 -42 -15 -48 -20 -13 -10
-89 10 -172 45 -48 20 -77 26 -115 24 l-52 -3 -3 -45 c-2 -37 4 -55 33 -102
24 -38 43 -58 56 -58 38 0 20 -40 -50 -108 -101 -99 -160 -146 -190 -153 -71
-18 -143 -4 -155 30 -4 9 -19 39 -35 66 -33 58 -69 81 -109 67 -40 -13 -54
-66 -50 -187 4 -117 25 -172 94 -235 34 -31 52 -40 97 -45 125 -16 251 39 426
185 33 28 68 50 78 50 11 0 36 9 58 20 22 11 44 20 51 20 15 0 91 -83 105
-114 19 -41 3 -70 -87 -157 -47 -46 -92 -97 -101 -114 -9 -16 -43 -59 -76 -95
-84 -93 -110 -147 -105 -224 7 -97 29 -133 107 -168 35 -16 92 -45 125 -66 56
-34 67 -37 151 -39 104 -4 123 5 132 60 7 47 -3 84 -27 97 -11 6 -63 15 -116
20 -114 10 -128 21 -108 79 7 20 13 45 14 55 0 11 11 33 24 50 13 17 26 41 30
53 4 12 20 33 36 47 17 13 48 46 71 73 23 26 57 59 75 72 l33 23 26 -20 c14
-12 52 -26 83 -33 31 -7 70 -22 85 -33 23 -17 44 -21 105 -21 l77 0 3 40 c4
52 -22 92 -104 159 -35 29 -64 62 -67 76 -7 33 25 67 114 121 37 22 73 47 80
55 15 19 83 18 99 -1 7 -8 18 -15 25 -15 7 0 24 -27 39 -60 38 -84 65 -103
140 -98 57 4 62 7 102 52 73 83 67 147 -22 225 -79 70 -154 101 -245 101 -102
0 -166 -22 -236 -81 -32 -27 -78 -58 -103 -70 -25 -12 -61 -29 -81 -39 l-36
-19 -52 28 c-28 15 -60 41 -71 58 -10 17 -28 37 -39 45 -20 14 -20 15 7 49 16
19 39 52 52 74 13 22 37 54 53 70 17 17 45 53 62 80 31 49 85 172 85 195 0 6
9 39 21 73 16 48 20 80 17 141 l-3 78 -47 43 c-30 27 -64 47 -92 54 -52 13
-151 13 -216 0z"/>
</g>
</svg>
