<?xml version="1.0" standalone="no"?>
<!DOCTYPE svg PUBLIC "-//W3C//DTD SVG 20010904//EN"
 "http://www.w3.org/TR/2001/REC-SVG-20010904/DTD/svg10.dtd">
<svg version="1.0" xmlns="http://www.w3.org/2000/svg"
 width="900.000000pt" height="624.000000pt" viewBox="0 0 900.000000 624.000000"
 preserveAspectRatio="xMidYMid meet">
<metadata>
Created by potrace 1.10, written by Peter Selinger 2001-2011
</metadata>
<g transform="translate(0.000000,624.000000) scale(0.100000,-0.100000)"
fill="#000000" stroke="none">
<path d="M3925 4949 c-97 -32 -206 -114 -250 -190 -44 -77 -74 -155 -85 -224
-26 -157 -31 -210 -29 -300 l3 -100 -94 -14 c-78 -11 -111 -12 -190 -2 -208
27 -302 71 -387 181 -87 113 -84 210 11 305 79 79 175 115 307 115 77 0 128
-19 166 -64 26 -29 51 -34 60 -10 9 24 -87 111 -133 120 -50 9 -255 -1 -279
-14 -11 -6 -42 -21 -70 -34 -27 -13 -56 -29 -63 -35 -7 -7 -17 -13 -22 -13 -5
0 -33 -24 -62 -53 -67 -67 -86 -125 -66 -203 6 -27 18 -56 25 -65 7 -8 13 -19
13 -22 0 -14 79 -100 131 -143 66 -54 167 -93 299 -115 76 -12 236 -12 294 1
26 6 51 8 55 6 12 -8 30 -157 35 -296 8 -182 -13 -411 -46 -505 -5 -16 -14
-46 -18 -65 -17 -72 -63 -182 -85 -200 -11 -9 -25 -6 -62 13 -42 21 -115 46
-228 78 -145 40 -385 52 -478 23 -127 -38 -231 -109 -267 -180 -25 -48 -26
-130 -3 -181 18 -41 106 -133 126 -133 6 0 25 -7 40 -15 34 -17 174 -45 229
-45 39 0 143 21 203 42 17 5 41 12 55 15 24 4 79 27 110 45 8 4 22 11 30 14 8
3 22 10 30 15 8 5 39 20 68 35 28 14 52 30 52 35 0 5 5 9 11 9 9 0 47 28 155
114 23 19 25 19 61 1 21 -10 67 -28 103 -40 35 -12 66 -27 67 -32 2 -6 -8 -24
-23 -39 -38 -42 -68 -92 -89 -151 -18 -51 -18 -53 0 -110 11 -32 29 -72 42
-90 29 -40 118 -86 150 -78 31 7 29 33 -2 41 -14 3 -25 10 -25 15 0 5 -9 9
-19 9 -29 0 -69 54 -77 105 -11 79 12 148 73 215 13 14 23 28 23 32 0 16 43
30 64 20 45 -21 104 -41 166 -56 l65 -17 85 -140 c47 -77 93 -152 102 -167 10
-15 22 -36 28 -47 13 -26 34 -59 41 -65 3 -3 29 -44 58 -92 28 -48 56 -90 60
-92 10 -7 51 22 51 35 0 6 15 30 33 53 17 24 39 54 47 66 8 13 33 48 55 79 22
31 71 103 109 159 66 100 70 104 100 99 45 -8 298 23 321 39 11 8 27 14 37 14
10 0 18 4 18 9 0 5 12 14 28 19 15 6 42 24 60 40 28 27 32 37 32 80 0 42 -5
55 -32 84 -40 41 -123 93 -165 102 -49 11 -48 31 4 99 25 34 51 67 58 72 18
15 35 52 28 59 -9 9 -1451 8 -1456 -1 -6 -10 6 -38 33 -78 11 -16 23 -37 27
-45 4 -8 25 -39 47 -68 42 -57 42 -73 0 -96 -10 -6 -35 -23 -55 -38 -41 -31
-68 -35 -107 -14 -37 19 -101 43 -134 50 -31 7 -38 35 -15 58 14 14 43 68 72
133 10 22 24 52 32 67 7 14 13 34 13 45 0 10 7 27 15 37 8 11 15 32 15 47 0
14 6 44 14 65 7 22 16 86 19 144 8 121 -7 440 -24 518 -14 69 -6 100 29 108
31 7 125 53 180 88 58 38 186 166 205 206 4 8 16 29 27 45 50 77 60 114 60
215 0 110 -11 142 -68 194 -52 48 -178 70 -257 45z m183 -82 c8 -6 23 -30 33
-52 24 -53 27 -216 4 -235 -8 -7 -15 -18 -15 -25 0 -14 -81 -129 -113 -160
-12 -11 -62 -50 -111 -87 -50 -37 -96 -72 -103 -77 -6 -6 -23 -13 -37 -17
l-26 -6 0 113 c0 69 6 136 15 169 8 30 15 67 15 82 0 26 9 51 53 148 11 25 47
71 78 102 46 45 66 58 96 61 50 6 93 0 111 -16z m1012 -1734 c0 -13 -4 -23 -9
-23 -5 0 -21 -20 -35 -45 -15 -25 -29 -45 -32 -45 -3 0 -20 6 -37 14 -97 41
-200 54 -417 54 -295 0 -437 -21 -552 -84 -36 -19 -47 -18 -57 9 -5 12 -26 47
-45 77 -20 30 -36 58 -36 63 0 5 256 8 610 6 l610 -4 0 -22z m-2060 -71 c19
-6 55 -15 80 -20 25 -6 70 -17 100 -26 30 -9 75 -22 100 -29 67 -18 64 -41
-12 -97 -34 -25 -66 -47 -72 -50 -6 -3 -29 -17 -51 -31 -22 -14 -47 -28 -55
-32 -8 -4 -22 -11 -30 -16 -8 -5 -22 -12 -30 -15 -8 -3 -22 -10 -30 -15 -16
-10 -65 -28 -150 -57 -80 -27 -280 -26 -330 1 -76 43 -130 117 -130 180 0 74
87 161 202 203 58 21 76 22 218 18 85 -2 171 -9 190 -14z m1719 -33 c36 -6 92
-17 123 -25 32 -8 67 -14 77 -14 34 0 33 -19 -1 -63 -40 -50 -108 -149 -125
-180 -6 -12 -27 -39 -45 -59 l-33 -37 -105 15 c-58 8 -143 19 -188 24 -46 6
-88 12 -92 15 -11 7 -149 34 -208 42 -31 4 -46 11 -53 27 -5 11 -18 35 -29 51
-11 17 -24 40 -30 53 -5 12 -14 22 -20 22 -6 0 -10 12 -8 26 3 23 11 29 68 46
36 11 79 24 95 29 17 5 77 14 135 20 58 6 107 13 109 15 9 9 267 3 330 -7z
m382 -91 c61 -31 109 -85 109 -121 0 -40 -55 -89 -123 -110 -134 -41 -267 -59
-267 -36 0 6 19 36 43 67 24 31 67 94 97 140 61 92 72 96 141 60z m-1145 -84
c40 -60 37 -87 -6 -64 -13 7 -44 17 -69 24 -36 8 -47 16 -49 34 -2 14 2 22 11
22 8 0 22 9 32 20 28 31 41 25 81 -36z m254 -178 c90 -28 188 -45 328 -57 106
-9 142 -15 142 -25 0 -8 -25 -46 -55 -86 -62 -82 -66 -88 -80 -110 -25 -40
-96 -145 -110 -163 -18 -23 -22 -19 -65 60 -18 33 -38 67 -45 75 -6 8 -15 22
-19 30 -3 8 -15 29 -26 45 -11 17 -23 37 -27 45 -3 8 -9 17 -13 20 -3 3 -17
23 -30 45 -13 22 -36 56 -52 76 -47 61 -34 72 52 45z"/>
<path d="M4500 4540 c-8 -5 -24 -10 -35 -10 -23 0 -90 -34 -112 -56 -8 -8 -18
-14 -22 -14 -17 0 -77 -98 -88 -145 -14 -55 -1 -146 24 -176 7 -8 13 -19 13
-23 0 -14 66 -68 110 -89 37 -18 63 -22 150 -22 104 0 105 0 160 37 33 22 69
58 90 90 32 50 34 58 34 138 0 74 -3 90 -26 125 -30 47 -73 95 -86 95 -4 0
-13 5 -19 11 -17 17 -113 48 -148 49 -16 0 -37 -5 -45 -10z m91 -76 c61 -20
131 -88 147 -143 31 -102 -7 -195 -100 -246 -89 -48 -186 -35 -256 35 -80 80
-96 189 -39 275 55 86 143 113 248 79z"/>
<path d="M4482 4317 c-47 -50 -15 -127 51 -127 64 0 98 69 61 125 -22 34 -81
35 -112 2z"/>
<path d="M5480 4531 c-141 -50 -290 -192 -339 -321 -23 -61 -42 -212 -38 -293
4 -85 -7 -104 -41 -75 -61 53 -161 63 -227 23 -22 -14 -47 -28 -55 -32 -14 -6
-32 -26 -89 -92 -12 -13 -21 -30 -21 -36 0 -7 -6 -18 -14 -24 -8 -6 -16 -26
-19 -44 -3 -18 -8 -45 -12 -62 -3 -16 -8 -40 -11 -52 -2 -13 -9 -23 -15 -23
-5 0 -22 -11 -37 -25 -15 -14 -37 -28 -49 -31 -13 -4 -23 -10 -23 -14 0 -4
-12 -13 -27 -19 -16 -6 -35 -15 -43 -20 -23 -13 -84 -31 -107 -31 -39 0 -91
29 -123 70 -36 46 -37 76 0 72 24 -2 95 19 142 44 14 8 33 14 42 14 9 0 46 29
81 65 62 62 65 67 65 113 0 52 -13 69 -80 105 -53 29 -272 31 -315 3 -43 -28
-85 -68 -85 -81 0 -6 -5 -16 -11 -22 -41 -41 -65 -218 -34 -259 8 -10 15 -26
15 -35 0 -19 64 -87 94 -100 11 -5 28 -13 36 -18 29 -17 115 -41 146 -41 78 0
227 74 294 145 32 35 47 31 55 -12 7 -41 58 -103 84 -103 9 0 34 -7 56 -15
118 -42 218 -4 310 119 52 68 81 185 71 278 -3 27 1 82 9 124 8 42 15 105 15
142 0 80 31 195 71 262 5 8 12 22 16 30 19 44 107 142 155 173 64 41 172 62
202 39 6 -5 22 -12 36 -15 39 -9 106 -72 128 -120 29 -59 35 -103 24 -167 -13
-75 -30 -114 -79 -188 -24 -35 -43 -66 -43 -69 0 -2 -11 -17 -25 -31 -58 -63
-91 -102 -149 -177 -35 -44 -66 -87 -69 -95 -4 -8 -18 -33 -32 -55 -13 -22
-24 -50 -25 -62 0 -12 -4 -25 -10 -28 -14 -9 -12 -121 4 -175 23 -82 47 -123
105 -179 66 -65 144 -106 251 -132 73 -17 79 -17 143 0 37 9 73 23 79 29 7 7
17 12 23 12 14 0 55 46 78 87 64 116 -66 311 -192 288 -46 -9 -61 -21 -61 -51
0 -24 14 -32 25 -14 3 6 24 10 45 10 32 0 46 -7 75 -37 32 -33 35 -41 35 -98
0 -43 -5 -66 -15 -75 -8 -7 -15 -18 -15 -24 -1 -26 -105 -76 -159 -76 -102 0
-238 102 -268 201 -16 54 -16 86 -2 163 19 102 50 153 176 293 76 84 133 161
133 179 0 6 7 17 15 24 8 7 15 22 15 34 0 11 7 30 15 40 8 11 15 30 15 42 0
12 7 38 15 57 27 65 13 208 -26 277 -5 8 -13 25 -19 38 -16 36 -96 109 -147
132 -27 12 -56 26 -65 31 -27 14 -127 8 -178 -10z m-451 -732 c40 -43 57 -129
42 -201 -21 -92 -94 -218 -127 -218 -6 0 -17 -7 -24 -15 -46 -55 -132 44 -109
125 4 14 7 39 8 56 1 18 8 45 16 60 8 16 15 39 15 50 0 12 7 27 15 34 8 7 15
19 15 27 0 16 26 68 49 96 23 28 68 21 100 -14z m-628 -37 c28 -55 10 -89 -80
-150 -42 -29 -83 -52 -92 -52 -8 0 -24 -7 -36 -15 -26 -18 -53 -10 -53 17 0
33 23 112 37 126 7 7 13 17 13 22 0 5 24 27 53 49 45 35 58 40 97 38 40 -2 47
-6 61 -35z"/>
</g>
</svg>
