<?xml version="1.0" encoding="UTF-8"?>
<svg id="Layer_2" data-name="Layer 2" xmlns="http://www.w3.org/2000/svg" viewBox="0 0 177.75 146.23">
  <g id="Layer_1-2" data-name="Layer 1">
    <path d="M125.1,110.88c.14-.31,.18-.62,.35-.74q3.88-2.74,.34-6.22c-1.95-1.93-4.02-3.73-5.68-5.94-1.22-1.62-2.87-2.23-4.89-2.19-4.73,.11-9.44,.4-14.11,1.18-3.09,.52-3.76,1.4-3.56,4.54,.1,1.62,.13,3.25,.31,4.86,.29,2.66,1.12,3.42,3.81,3.63,1.36,.11,2.73,.1,4.09,.23,.64,.06,1.2,.44,1.21,1.18,0,.71-.5,1.14-1.13,1.32-.59,.16-1.22,.26-1.83,.26-5.59-.04-11.19-.1-16.78-.17-.37,0-.76,0-1.1-.13-.59-.22-1.19-.53-1.19-1.26,0-.79,.66-1.02,1.27-1.08,1.11-.11,2.24-.09,3.35-.17,3.7-.27,4.32-.88,4.45-4.5,.06-1.75,.11-3.51-.05-5.24-.24-2.67-1.13-3.69-3.75-3.66-5.09,.06-10.18,.38-15.27,.64-1.44,.08-2.57,.97-3.55,1.92-2.15,2.08-4.23,4.23-6.3,6.39-2.4,2.5-2.09,3.64,1.2,4.43,.94,.23,2.24,.11,2.15,1.49-.09,1.51-1.46,1.51-2.56,1.56-5.72,.25-11.45,0-17.16,.48-1.14,.1-2.5-.14-2.58-1.54-.1-1.7,1.39-2.05,2.63-1.85,6.31,1.02,10.19-2.58,13.94-6.87,4.91-5.63,9.91-11.19,15.65-16.04,1.5-1.27,2.73-2.9,3.99-4.44,1.74-2.14,1.51-2.82-1.05-3.46-.36-.09-.75-.04-1.1-.14-.78-.22-1.37-.7-1.34-1.56,.03-.83,.59-1.42,1.34-1.62,.83-.22,1.71-.3,2.57-.31,9.95-.08,19.92,.2,29.85-.32,7.77-.41,14.04,9.14,10.03,15.33-1.36,2.1-.82,3.79,.72,5.73,2.81,3.55,6.16,6.5,9.49,9.51,1.57,1.42,3.52,1.75,5.53,1.94,1.61,.15,3.24,.14,4.78,.72,.73,.28,1.36,.72,1.29,1.61-.07,.88-.74,1.25-1.5,1.43-.48,.11-.98,.19-1.48,.18-4.98-.04-9.95-.1-14.93-.18-.49,0-.98-.15-1.43-.89Zm-18.56-32.18c-2.02,.18-4.62,.4-7.22,.65-1.98,.19-2.82,1.34-2.68,3.31,.2,2.74,.4,5.48,.53,8.22,.09,1.85,1.08,2.96,2.82,2.7,4.58-.69,9.2-.34,13.78-.79,3.19-.32,5.9-3.43,6.09-6.6,.23-3.73-1.13-5.54-4.96-6.87-2.56-.89-5.18-.45-8.36-.63Zm-21.76,14.44c2.12,.45,4.09,.09,6.07-.04,2.13-.14,3.2-1.37,3.1-3.41-.13-2.61-.35-5.22-.78-7.79-.36-2.16-2.2-3.04-4.22-2.12-.88,.4-1.79,1-2.36,1.76-2.23,2.98-4.57,5.84-7.11,8.57-1.37,1.47-.73,2.76,1.34,3.01,1.34,.16,2.72,.03,3.95,.03Z"/>
    <path d="M93.9,16.82c-2.24-.11-3.9,1.18-5.78,1.67-.95,.25-1.89,.59-2.86,.76-1.17,.21-2.32,.05-2.59-1.38-.22-1.19,.6-1.95,1.64-2.09,4.16-.54,7.45-2.32,9.69-5.99,.52-.85,1.63-1.14,2.66-.62,1.3,.67,1.42,1.95,1.43,3.19,.07,5.56,.14,11.11,.14,16.67,0,5.56-.11,11.12-.12,16.68,0,3.88,1.43,5.23,5.41,5.17,1.35-.02,2.7-.29,4.05-.28,1.2,.01,2.22,.52,2.28,1.92,.05,1.18-.75,1.76-1.79,2.04-.47,.13-.97,.25-1.46,.25-6.54-.03-13.08-.06-19.63-.15-1.39-.02-2.95-.33-2.78-2.19,.15-1.58,1.52-1.72,2.85-1.61,.86,.07,1.73,.14,2.59,.14,4.2,.02,5.35-1.02,5.37-5.19,.03-8.15-.03-16.31-.09-24.46-.01-1.46-.03-2.97-1.02-4.53Z"/>
  </g>
</svg>