<?xml version="1.0" encoding="UTF-8"?>
<svg id="Layer_2" data-name="Layer 2" xmlns="http://www.w3.org/2000/svg" viewBox="0 0 789.32 904.61">
  <g id="Layer_1-2" data-name="Layer 1">
    <path d="M231.88,761.59c-3.91,0-7.13,.01-10.35,0-4.66-.03-6.73-1.59-8.07-6.13-2.59-8.78-5.14-17.57-7.74-26.35-2.94-9.93-5.96-19.85-8.89-29.78-2.88-9.74-5.65-19.52-8.54-29.26-4.52-15.24-9.12-30.45-13.64-45.69-3.34-11.28-6.6-22.6-9.91-33.89-2.49-8.49-5.03-16.97-7.54-25.46-3.48-11.77-6.94-23.54-10.43-35.31-2.66-8.97-5.37-17.92-8.03-26.89-2.91-9.84-5.77-19.69-8.68-29.53-3.28-11.09-6.6-22.17-9.89-33.26-1.2-4.05-2.27-8.14-3.54-12.17-.99-3.15-.45-5.82,1.57-8.47,5.3-6.96,10.46-14.03,15.66-21.07,6.82-9.22,13.62-18.45,20.43-27.67,.72-.97,1.48-1.9,2.23-2.85,1.91-2.4,4.48-3.04,7.31-2.43,2.67,.58,3.95,2.65,4.47,5.17,1.81,8.77,3.58,17.55,5.37,26.32,2.75,13.51,5.52,27.01,8.36,40.49,4.94,23.43,9.66,46.9,14.45,70.36,3.5,17.15,6.94,34.32,10.47,51.46,4.76,23.16,9.6,46.3,14.37,69.46,2.23,10.84,4.37,21.7,6.56,32.55,.8,3.98,1.57,4.57,5.7,4.57,2.61,0,5.23,.01,7.84,.12,2.89,.12,4.76-.94,6.32-3.58,6.12-10.41,11.85-21.04,18.04-31.4,5.67-9.5,10.85-19.29,16.54-28.77,5.59-9.32,10.66-18.93,16.25-28.24,5.54-9.23,10.56-18.76,16.11-27.98,5.6-9.31,10.65-18.94,16.26-28.24,5.46-9.05,10.48-18.33,15.79-27.46,7.43-12.78,14.87-25.55,22.27-38.35,3.62-6.27,7.12-12.61,10.74-18.88,6.89-11.93,13.85-23.82,20.75-35.74,2.52-4.35,4.92-8.77,7.41-13.14,.84-1.48,1.6-3.06,3.22-3.9,2.44-1.26,4.78-1.13,7.17,.28,6.58,3.9,13.18,7.74,19.8,11.56,3.05,1.76,6.17,3.39,9.22,5.14,4.48,2.57,5.44,5.89,2.89,10.36-5.82,10.22-11.72,20.4-17.58,30.61-7.41,12.91-14.66,25.91-22.25,38.72-5.54,9.35-10.66,18.93-16.26,28.24-5.61,9.31-10.65,18.94-16.25,28.24-5.66,9.39-10.76,19.1-16.4,28.5-5.44,9.06-10.34,18.42-15.82,27.45-6.99,11.53-13.27,23.46-20.25,34.99-4.43,7.31-8.49,14.84-12.74,22.26-5.45,9.51-10.9,19.02-16.38,28.51-7.6,13.15-15.24,26.27-22.83,39.42-3.12,5.4-6.03,10.92-9.25,16.26-5.41,8.96-10.4,18.15-15.55,27.25-1.34,2.37-3.42,3.31-5.97,3.46-3.82,.21-7.64,.29-10.77,.14Z"/>
  </g>
</svg>