<?xml version="1.0" encoding="UTF-8"?>
<svg id="Layer_2" data-name="Layer 2" xmlns="http://www.w3.org/2000/svg" viewBox="0 0 861.36 976.68">
  <g id="Layer_1-2" data-name="Layer 1">
    <path d="M568.18,528.94c.27,2.21,.33,4.68-1.86,5.42-2.57,.87-5.09,2.26-8.3,.48-18.9-10.5-37.97-20.7-56.97-31.02-16.88-9.17-33.72-18.41-50.61-27.57-14.42-7.83-28.91-15.53-43.32-23.38-24.78-13.52-49.49-27.19-74.29-40.66-23.62-12.83-47.32-25.49-70.99-38.23-2.96-1.6-5.98-3.11-8.83-4.89-3.73-2.32-3.18-6.61-3.74-10.06-1.49-9.23-1.34-18.62-1.64-27.96-.15-4.74,2.55-6.74,6.3-7.94,15.42-4.91,31.03-9.18,46.34-14.47,12.01-4.15,24.27-7.58,36.36-11.5,12.73-4.13,25.36-8.57,38.09-12.71,10.71-3.48,21.5-6.7,32.23-10.08,12.74-4.01,25.46-8.08,38.19-12.1,17.04-5.38,34.23-10.3,51.08-16.23,21.52-7.57,43.55-13.51,65.11-20.93,14.31-4.92,28.92-8.95,43.34-13.53,12.3-3.91,24.5-8.14,36.82-11.98,4.17-1.3,8.55-1.99,12.87-2.75,2.37-.42,3.64,.67,4.12,3.25,2.49,13.32,2.99,26.82,3.76,40.29,.16,2.91-1.03,5.41-3.24,7.5-8.26,7.83-16.45,15.75-24.66,23.64-11.29,10.86-22.55,21.76-33.87,32.59-20.12,19.25-40.28,38.44-60.4,57.69-3.65,3.5-7.12,7.18-10.79,10.67-1.79,1.7-2.09,3.51-1.47,5.81,5.5,20.26,10.95,40.54,16.41,60.81,5.34,19.82,10.66,39.65,16.06,59.46,2.2,8.08,4.58,16.11,6.91,24.16,.6,2.08,1.11,4.15,.96,6.22Zm31.5-280.35c-.54,.12-1.78,.32-2.96,.69-14.05,4.39-28.07,8.88-42.14,13.19-11.27,3.45-22.73,6.3-33.89,10.08-19.51,6.62-39.43,11.83-59.06,18.05-10.92,3.46-21.95,6.56-32.89,9.94-15.26,4.72-30.38,9.9-45.74,14.24-17.61,4.98-34.82,11.27-52.6,15.7-9.36,2.33-18.47,5.61-27.7,8.46-1.82,.56-3.76,.8-4.22,3.27-.48,2.57,1.46,3.41,2.99,4.37,10.49,6.58,20.88,13.33,31.61,19.51,11.69,6.73,22.97,14.14,34.54,21.06,10.39,6.21,20.65,12.71,30.94,19.11,11,6.84,22.12,13.47,33.13,20.3,16.43,10.2,32.76,20.58,49.22,30.74,13.66,8.44,27.45,16.66,41.13,25.05,1.48,.91,2.79,2.2,4.54,.99,1.51-1.05,1.46-2.66,.99-4.3-3.4-11.87-6.66-23.78-10.21-35.61-3.54-11.82-7.42-23.54-11.05-35.34-3.04-9.88-5.67-19.9-9.05-29.67-1.58-4.58-1.45-8.05,1.95-11.66,7.33-7.79,14.36-15.85,21.61-23.72,10.37-11.26,20.87-22.41,31.23-33.69,12.79-13.93,25.48-27.95,38.23-41.92,3.79-4.15,7.64-8.26,11.43-12.41,1.27-1.39,2.11-2.97,1.35-4.93-.47-1.21-1.4-1.72-3.37-1.49Z"/>
  </g>
</svg>