<?xml version="1.0" encoding="UTF-8"?>
<svg id="Layer_2" data-name="Layer 2" xmlns="http://www.w3.org/2000/svg" viewBox="0 0 861.36 976.68">
  <g id="Layer_1-2" data-name="Layer 1">
    <path d="M267.91,797.64c-3.91,0-7.13,.01-10.35,0-4.66-.03-6.73-1.59-8.07-6.13-2.59-8.78-5.14-17.57-7.74-26.35-2.94-9.93-5.96-19.85-8.89-29.78-2.88-9.74-5.65-19.52-8.54-29.26-4.52-15.24-9.12-30.45-13.64-45.69-3.34-11.28-6.6-22.6-9.91-33.89-2.49-8.49-5.03-16.97-7.54-25.46-3.48-11.77-6.94-23.54-10.43-35.31-2.66-8.97-5.37-17.92-8.03-26.89-2.91-9.84-5.77-19.69-8.68-29.53-3.28-11.09-6.6-22.17-9.89-33.26-1.2-4.05-2.27-8.14-3.54-12.17-.99-3.15-.45-5.82,1.57-8.47,5.3-6.96,10.46-14.03,15.66-21.07,6.82-9.22,13.62-18.45,20.43-27.67,.72-.97,1.48-1.9,2.23-2.85,1.91-2.4,4.48-3.04,7.31-2.43,2.67,.58,3.95,2.65,4.47,5.17,1.81,8.77,3.58,17.55,5.37,26.32,2.75,13.51,5.52,27.01,8.36,40.49,4.94,23.43,9.66,46.9,14.45,70.36,3.5,17.15,6.94,34.32,10.47,51.46,4.76,23.16,9.6,46.3,14.37,69.46,2.23,10.84,4.37,21.7,6.56,32.55,.8,3.98,1.57,4.57,5.7,4.57,2.61,0,5.23,.01,7.84,.12,2.89,.12,4.76-.94,6.32-3.58,6.12-10.41,11.85-21.04,18.04-31.4,5.67-9.5,10.85-19.29,16.54-28.77,5.59-9.32,10.66-18.93,16.25-28.24,5.54-9.23,10.56-18.76,16.11-27.98,5.6-9.31,10.65-18.94,16.26-28.24,5.46-9.05,10.48-18.33,15.79-27.46,7.43-12.78,14.87-25.55,22.27-38.35,3.62-6.27,7.12-12.61,10.74-18.88,6.89-11.93,13.85-23.82,20.75-35.74,2.52-4.35,4.92-8.77,7.41-13.14,.84-1.48,1.6-3.06,3.22-3.9,2.44-1.26,4.78-1.13,7.17,.28,6.58,3.9,13.18,7.74,19.8,11.56,3.05,1.76,6.17,3.39,9.22,5.14,4.48,2.57,5.44,5.89,2.89,10.36-5.82,10.22-11.72,20.4-17.58,30.61-7.41,12.91-14.66,25.91-22.25,38.72-5.54,9.35-10.66,18.93-16.26,28.24-5.61,9.31-10.65,18.94-16.25,28.24-5.66,9.39-10.76,19.1-16.4,28.5-5.44,9.06-10.34,18.42-15.82,27.45-6.99,11.53-13.27,23.46-20.25,34.99-4.43,7.31-8.49,14.84-12.74,22.26-5.45,9.51-10.9,19.02-16.38,28.51-7.6,13.15-15.24,26.27-22.83,39.42-3.12,5.4-6.03,10.92-9.25,16.26-5.41,8.96-10.4,18.15-15.55,27.25-1.34,2.37-3.42,3.31-5.97,3.46-3.82,.21-7.64,.29-10.77,.14Z"/>
    <path d="M568.18,528.94c.27,2.21,.33,4.68-1.86,5.42-2.57,.87-5.09,2.26-8.3,.48-18.9-10.5-37.97-20.7-56.97-31.02-16.88-9.17-33.72-18.41-50.61-27.57-14.42-7.83-28.91-15.53-43.32-23.38-24.78-13.52-49.49-27.19-74.29-40.66-23.62-12.83-47.32-25.49-70.99-38.23-2.96-1.6-5.98-3.11-8.83-4.89-3.73-2.32-3.18-6.61-3.74-10.06-1.49-9.23-1.34-18.62-1.64-27.96-.15-4.74,2.55-6.74,6.3-7.94,15.42-4.91,31.03-9.18,46.34-14.47,12.01-4.15,24.27-7.58,36.36-11.5,12.73-4.13,25.36-8.57,38.09-12.71,10.71-3.48,21.5-6.7,32.23-10.08,12.74-4.01,25.46-8.08,38.19-12.1,17.04-5.38,34.23-10.3,51.08-16.23,21.52-7.57,43.55-13.51,65.11-20.93,14.31-4.92,28.92-8.95,43.34-13.53,12.3-3.91,24.5-8.14,36.82-11.98,4.17-1.3,8.55-1.99,12.87-2.75,2.37-.42,3.64,.67,4.12,3.25,2.49,13.32,2.99,26.82,3.76,40.29,.16,2.91-1.03,5.41-3.24,7.5-8.26,7.83-16.45,15.75-24.66,23.64-11.29,10.86-22.55,21.76-33.87,32.59-20.12,19.25-40.28,38.44-60.4,57.69-3.65,3.5-7.12,7.18-10.79,10.67-1.79,1.7-2.09,3.51-1.47,5.81,5.5,20.26,10.95,40.54,16.41,60.81,5.34,19.82,10.66,39.65,16.06,59.46,2.2,8.08,4.58,16.11,6.91,24.16,.6,2.08,1.11,4.15,.96,6.22Zm31.5-280.35c-.54,.12-1.78,.32-2.96,.69-14.05,4.39-28.07,8.88-42.14,13.19-11.27,3.45-22.73,6.3-33.89,10.08-19.51,6.62-39.43,11.83-59.06,18.05-10.92,3.46-21.95,6.56-32.89,9.94-15.26,4.72-30.38,9.9-45.74,14.24-17.61,4.98-34.82,11.27-52.6,15.7-9.36,2.33-18.47,5.61-27.7,8.46-1.82,.56-3.76,.8-4.22,3.27-.48,2.57,1.46,3.41,2.99,4.37,10.49,6.58,20.88,13.33,31.61,19.51,11.69,6.73,22.97,14.14,34.54,21.06,10.39,6.21,20.65,12.71,30.94,19.11,11,6.84,22.12,13.47,33.13,20.3,16.43,10.2,32.76,20.58,49.22,30.74,13.66,8.44,27.45,16.66,41.13,25.05,1.48,.91,2.79,2.2,4.54,.99,1.51-1.05,1.46-2.66,.99-4.3-3.4-11.87-6.66-23.78-10.21-35.61-3.54-11.82-7.42-23.54-11.05-35.34-3.04-9.88-5.67-19.9-9.05-29.67-1.58-4.58-1.45-8.05,1.95-11.66,7.33-7.79,14.36-15.85,21.61-23.72,10.37-11.26,20.87-22.41,31.23-33.69,12.79-13.93,25.48-27.95,38.23-41.92,3.79-4.15,7.64-8.26,11.43-12.41,1.27-1.39,2.11-2.97,1.35-4.93-.47-1.21-1.4-1.72-3.37-1.49Z"/>
  </g>
</svg>